<?xml version="1.0" encoding="utf-8"?>
<!-- Generator: Adobe Illustrator 25.2.1, SVG Export Plug-In . SVG Version: 6.00 Build 0)  -->
<svg version="1.1" id="bf987f75-b15a-4b7f-a137-75b4492c4a21"
	 xmlns="http://www.w3.org/2000/svg" xmlns:xlink="http://www.w3.org/1999/xlink" x="0px" y="0px" viewBox="0 0 1167.5 756"
	 style="enable-background:new 0 0 1167.5 756;" xml:space="preserve">
<style type="text/css">
	.st0{opacity:0.1;fill:#3D5AF1;enable-background:new    ;}
	.st1{opacity:0.2;}
	.st2{fill:#3F3D56;}
	.st3{fill:#3D5AF1;}
	.st4{opacity:0.1;enable-background:new    ;}
	.st5{fill:url(#SVGID_1_);}
	.st6{fill:#FFFFFF;}
	.st7{fill:#EDEDF4;}
	.st8{opacity:0.8;fill:#FA5959;enable-background:new    ;}
	.st9{opacity:0.8;fill:#FED253;enable-background:new    ;}
	.st10{opacity:0.8;fill:#8CCF4D;enable-background:new    ;}
	.st11{fill:url(#SVGID_2_);}
	.st12{fill:url(#SVGID_3_);}
	.st13{fill:#EBC0B2;}
	.st14{fill:#66524B;}
</style>
<ellipse class="st0" cx="560.8" cy="725" rx="541" ry="31"/>
<g class="st1">
	<path class="st2" d="M1007.3,726.4c-0.5,0.9-1.1,1.8-1.7,2.7c-5.8-4.1-11.6-8-17.6-11.9c0.1-0.2,0.2-0.5,0.4-0.8
		c1.4-2.7,3.5-4.9,6-6.5c3.3-2,7-2.5,10-0.9s4.8,4.9,4.9,8.8C1009.4,720.8,1008.7,723.8,1007.3,726.4z"/>
	
		<ellipse transform="matrix(0.4681 -0.8837 0.8837 0.4681 -89.161 1264.5813)" class="st2" cx="1005.9" cy="706.4" rx="14" ry="10.7"/>
	
		<ellipse transform="matrix(0.4681 -0.8837 0.8837 0.4681 -71.5267 1263.6072)" class="st2" cx="1013.9" cy="691.2" rx="14" ry="10.7"/>
	
		<ellipse transform="matrix(0.4681 -0.8837 0.8837 0.4681 -53.8804 1262.6449)" class="st2" cx="1021.9" cy="676.1" rx="14" ry="10.7"/>
	
		<ellipse transform="matrix(0.4681 -0.8837 0.8837 0.4681 -36.2345 1261.6724)" class="st2" cx="1029.9" cy="660.9" rx="14" ry="10.7"/>
	<path class="st3" d="M1049.3,538.5c-0.4-2.3-0.7-4.7-0.8-7l27,9.1l-27-14c0.8-14.1,7.4-27.3,18.2-36.5l26.1,37.9l-20.3-42.1
		c24-15,55.7-7.7,70.7,16.3c15,24,7.7,55.7-16.3,70.7c-2,1.3-4.1,2.4-6.3,3.4c0.7,3.6,0.9,7.3,0.8,11l-41.2-0.3l40.5,6.7
		c-2.8,17.1-14,31.6-29.8,38.7c5.1,27.9-13.4,54.6-41.3,59.6S995,678.5,990,650.6c-4.2-23.3,8-46.5,29.7-56
		C1015.5,571.3,1027.7,548.2,1049.3,538.5L1049.3,538.5z"/>
	<path class="st4" d="M1115.4,609.4c-5.4,10.2-14,18.2-24.5,22.9c5.1,27.9-13.4,54.6-41.3,59.6S995,678.5,990,650.6
		c-4.2-23.3,8-46.5,29.7-56C1017.7,583.6,1118.1,604.3,1115.4,609.4z"/>
</g>
<g class="st1">
	<path class="st2" d="M975.1,423.9c-0.6,1.6-1.4,3.2-2.2,4.6c-10.1-5.4-20.3-10.6-30.6-15.7c0.1-0.4,0.3-0.9,0.5-1.3
		c1.7-4.6,4.5-8.6,8.3-11.7c4.9-3.9,10.7-5.4,16-3.4s8.6,7,9.7,13.1C977.5,414.5,976.9,419.4,975.1,423.9z"/>
	
		<ellipse transform="matrix(0.3558 -0.9346 0.9346 0.3558 257.8888 1157.9143)" class="st2" cx="968.8" cy="391.9" rx="22.7" ry="17.3"/>
	
		<ellipse transform="matrix(0.3558 -0.9346 0.9346 0.3558 288.4666 1150.4473)" class="st2" cx="978.7" cy="366" rx="22.7" ry="17.3"/>
	
		<ellipse transform="matrix(0.3558 -0.9346 0.9346 0.3558 319.0474 1142.958)" class="st2" cx="988.5" cy="340.1" rx="22.7" ry="17.3"/>
	
		<ellipse transform="matrix(0.3558 -0.9346 0.9346 0.3558 349.6159 1135.4974)" class="st2" cx="998.4" cy="314.2" rx="22.7" ry="17.3"/>
	<path class="st3" d="M1005.2,113.7c-1.1-3.7-2-7.4-2.7-11.2l45.2,9.2l-46.2-17.2c-1.5-22.8,6.4-45.2,21.9-62l49.6,55.5l-41-63.5
		c35.7-28.8,87.9-23.2,116.7,12.4s23.2,87.9-12.4,116.7c-2.9,2.4-6,4.5-9.2,6.5c1.8,5.7,2.9,11.6,3.5,17.5l-66.2,7.7l66.4,2.6
		c-1.1,28-16.2,53.6-40.2,68.1c13.6,43.8-10.8,90.3-54.5,103.9c-43.8,13.6-90.3-10.8-103.9-54.5c-11.4-36.5,3.7-76.1,36.5-95.8
		C957.3,173,972.4,133.4,1005.2,113.7L1005.2,113.7z"/>
	<path class="st4" d="M1125.6,214.4c-6.6,17.4-18.9,32.1-34.9,41.6c13.6,43.8-10.8,90.3-54.5,103.9c-43.8,13.6-90.3-10.8-103.9-54.5
		c-11.4-36.5,3.7-76.1,36.5-95.8C963.4,192.5,1128.9,205.7,1125.6,214.4z"/>
</g>
<g class="st1">
	<path class="st2" d="M178.4,510.2c0.5,2,1.2,3.9,2,5.8c12.7-4.9,25.5-9.5,38.4-14c-0.1-0.5-0.2-1.1-0.4-1.6
		c-1.3-5.6-4.1-10.8-8.1-15c-5.2-5.3-11.9-7.9-18.3-6.3s-11.2,7-13.4,14C177.1,498.6,176.9,504.5,178.4,510.2z"/>
	
		<ellipse transform="matrix(0.9715 -0.2372 0.2372 0.9715 -106.7946 58.7159)" class="st2" cx="190.6" cy="473.2" rx="20.6" ry="27"/>
	
		<ellipse transform="matrix(0.9715 -0.2372 0.2372 0.9715 -99.4231 55.9467)" class="st2" cx="182.8" cy="441.2" rx="20.6" ry="27"/>
	<ellipse transform="matrix(0.9715 -0.2372 0.2372 0.9715 -92.0484 53.1793)" class="st2" cx="175" cy="409.2" rx="20.6" ry="27"/>
	
		<ellipse transform="matrix(0.9715 -0.2372 0.2372 0.9715 -84.6723 50.4089)" class="st2" cx="167.2" cy="377.1" rx="20.6" ry="27"/>
	<path class="st3" d="M188.6,139.6c1.9-4.2,3.5-8.4,4.8-12.8l-54.7,4.2l57-13.5c5.2-26.7-0.9-54.3-16.7-76.4l-66.7,58.2L170,30.4
		C132.3-8.9,69.8-10.2,30.4,27.6s-40.6,100.3-2.8,139.6c3.2,3.3,6.6,6.4,10.2,9.2c-2.9,6.5-5.2,13.2-6.7,20.2l76.9,18.8l-78.8-6.7
		C26.4,242,40.5,274.4,66.8,295c-22.6,49.6-0.6,108.1,49,130.7s108.1,0.6,130.7-49c18.9-41.5,6.9-90.4-28.9-118.6
		C236.4,216.7,224.4,167.7,188.6,139.6L188.6,139.6z"/>
	<path class="st4" d="M31.8,240.7c5.2,21.5,17.6,40.7,35,54.3c-22.6,49.6-0.6,108.1,49,130.7s108.1,0.6,130.7-49
		c18.9-41.5,6.9-90.4-28.9-118.6C226.4,238.8,29.1,230,31.8,240.7z"/>
</g>
<linearGradient id="SVGID_1_" gradientUnits="userSpaceOnUse" x1="588.17" y1="-48.81" x2="588.17" y2="570.19" gradientTransform="matrix(1 0 0 -1 -16.24 683.9)">
	<stop  offset="0" style="stop-color:#808080;stop-opacity:0.25"/>
	<stop  offset="0.54" style="stop-color:#808080;stop-opacity:0.12"/>
	<stop  offset="1" style="stop-color:#808080;stop-opacity:0.1"/>
</linearGradient>
<path class="st5" d="M1056.3,113.7H87.6c-4.8,0-8.6,3.9-8.6,8.6c0,0,0,0,0,0v592.9c0,9.6,7.8,17.4,17.4,17.5c0,0,0,0,0,0h951.2
	c9.6,0,17.4-7.8,17.4-17.5c0,0,0,0,0,0V122.4C1064.9,117.6,1061.1,113.7,1056.3,113.7z"/>
<path class="st6" d="M1061,150.5v561.2c0,9.5-7.7,17.2-17.2,17.2H100.3c-9.5,0-17.3-7.7-17.3-17.3l0,0V150.5H1061z"/>
<path class="st7" d="M1061,125.6v24.9H83v-24.9c0-4.7,3.8-8.6,8.6-8.6h960.9C1057.2,117,1061,120.9,1061,125.6
	C1061,125.6,1061,125.6,1061,125.6z"/>
<circle class="st8" cx="98.5" cy="133.5" r="4"/>
<circle class="st9" cx="109.5" cy="133.5" r="4"/>
<circle class="st10" cx="120.5" cy="133.5" r="4"/>
<linearGradient id="SVGID_2_" gradientUnits="userSpaceOnUse" x1="896.7" y1="-666.94" x2="896.7" y2="-660.94" gradientTransform="matrix(6.123234e-17 1 1 -6.123234e-17 1289.87 -795.98)">
	<stop  offset="0" style="stop-color:#808080;stop-opacity:0.25"/>
	<stop  offset="0.54" style="stop-color:#808080;stop-opacity:0.12"/>
	<stop  offset="1" style="stop-color:#808080;stop-opacity:0.1"/>
</linearGradient>
<rect x="622.9" y="98.7" class="st11" width="6" height="4"/>
<rect x="307.9" y="199.7" class="st7" width="94" height="10"/>
<rect x="307.9" y="228.7" class="st7" width="528" height="10"/>
<rect x="307.9" y="257.7" class="st7" width="528" height="10"/>
<rect x="307.9" y="286.7" class="st7" width="528" height="10"/>
<rect x="307.9" y="315.7" class="st7" width="528" height="10"/>
<rect x="408.8" y="371" class="st7" width="326" height="252"/>
<linearGradient id="SVGID_3_" gradientUnits="userSpaceOnUse" x1="588.5569" y1="62.8069" x2="588.5569" y2="272.7119" gradientTransform="matrix(1 0 0 -1 -16.24 683.9)">
	<stop  offset="0" style="stop-color:#808080;stop-opacity:0.25"/>
	<stop  offset="0.54" style="stop-color:#808080;stop-opacity:0.12"/>
	<stop  offset="1" style="stop-color:#808080;stop-opacity:0.1"/>
</linearGradient>
<path class="st12" d="M629,449.1c-0.4,0-0.8,0.1-1.3,0.1c0.1-0.6,0.2-1.2,0.1-1.8c-0.1-2.5-0.8-5-2-7.2c-0.7-1.3-1.6-2.6-2.5-3.8
	c-2.7-3.8-5.2-7.6-8.2-11.1c-1.3-1.4-2.4-3-3.2-4.7c-0.3-0.9-0.7-1.8-1.1-2.7c-1.2-1.8-3.3-2.9-5.5-2.6c-2.1,0.3-4.1,1.3-5.5,2.9
	c-0.8,0.9-1.5,2.3-0.8,3.3s2.2,1.1,2.3,2.3c0,0.6,0,1.6-0.6,1.8c-1.1,0.3-2.1,0.7-3.1,1.3c-0.9,0.6-1.5,1.7-1.6,2.8
	c1.7,0.3,3.2-1.2,4.8-2c2-0.8,4.2-0.9,6.3-0.2c0.8,0.2,1.5,0.6,2.2,1.1c0.6,0.6,1,1.2,1.4,1.9c1.9,2.8,3.1,6,3.5,9.4l0.9,5.6
	c-1.3,0.1-2.6,0.3-3.9,0.5c-3.5,0.5-7,0.3-10.3-0.7c-3.5-1-7-2.8-10.6-2c-1.7,0.4-3.2,1.3-4.9,1.6c-1.3,0.1-2.7,0.1-4-0.2l-2.8-0.4
	c-0.1-0.2-0.2-0.5-0.2-0.7c-0.6-2-0.8-4.1-0.8-6.2c6.1-0.3,10.7-5.5,10.4-11.6c-0.1-1.4-0.4-2.8-1-4c1.5-0.8,2.7-2.1,3.5-3.5
	l-0.7-0.1l0.7-1c-0.6-0.3-0.7-1.1-0.4-1.6c0.1-0.1,0.1-0.2,0.2-0.2c-0.6-0.3-1.2-0.4-1.9-0.4c0.2-0.4-0.1-0.9-0.5-1
	c-0.4-0.1-0.9-0.1-1.3-0.1c-0.6,0-1.3-0.2-1.9-0.4c-4.3-1.5-8.9-2.8-13.2-1.5c-1.9,0.6-3.7,1.5-5.3,2.8c-3.2,1.8-4.4,5.8-2.8,9.1
	c0.7,1.6,1.1,3.3,1.4,5.1c0.1,1.6-0.1,3.3-0.5,4.8c1,0.3,1.9,0.5,2.9,0.6c-0.6,2.1-1.5,4.2-2.9,5.9c-0.6,0.8-1.3,1.5-2,2.2H562
	c-2,0.4-4,0.6-6,0.7c-2.1,0-4.2-0.8-6.3-0.7c-1.3,0.1-2.5,0.4-3.7,0.8c-5.5,1.6-11.2,2.4-16.9,2.3l-0.7,0.1l0.6-4.1
	c0.3-3.4,1.5-6.6,3.5-9.4c0.4-0.7,0.8-1.3,1.4-1.9c0.6-0.5,1.4-0.9,2.2-1.1c2-0.7,4.3-0.6,6.3,0.2c1.6,0.8,3,2.2,4.8,2
	c-0.1-1.1-0.7-2.2-1.6-2.8c-0.9-0.6-2-1.1-3.1-1.3c-0.6-0.2-0.7-1.2-0.6-1.8c0.1-1.1,1.7-1.4,2.3-2.3s0-2.4-0.8-3.3
	c-1.4-1.6-3.4-2.7-5.5-2.9c-2.2-0.2-4.3,0.8-5.4,2.6c-0.4,0.9-0.8,1.8-1.1,2.7c-0.8,1.7-1.9,3.3-3.2,4.7c-3,3.5-5.5,7.4-8.2,11.1
	c-0.9,1.2-1.7,2.4-2.5,3.8c-1.2,2.2-1.9,4.7-2,7.2c0,0.6,0,1.2,0.1,1.8c-0.1,0.1-0.1,0.3-0.1,0.5c0.1,0.6,0.3,1.1,0.8,1.4
	c1.5,1.5,3.1,3.1,5.2,3.8c1.3,0.3,2.6,0.5,3.9,0.7c3.2,0.6,6.1,2.4,9.3,2.4c2.2,0,4.4-0.9,6.6-0.6c3,0.4,5.2,2.8,7,5.2
	c1.6,1.8,2.7,4,3.5,6.3c0.7,2.8,0.3,5.9,1.8,8.4c0.4,0.5,0.7,1.1,0.9,1.7c0,0.9-0.2,1.9-0.6,2.7c-1.3,3.9,1.5,8,1.2,12
	c-0.1,2-1,3.8-1.1,5.7c-0.2,2.5,0.9,5.3-0.5,7.4c0.8-0.4,1.7-0.8,2.6-1.2c-4.2,12.3-8,25-7.7,37.9c0.2,8.4,2,17.6-2.8,24.5
	c-0.7,0.8-1.2,1.8-1.6,2.8c-0.4,1.3,0,2.8,0.2,4.2c0.9,6-2.3,11.9-2.6,18c0,1.9,0.1,3.8,0.4,5.6l1.2,10.1c-1.2,0.3-2.3,0.8-3.2,1.6
	c-1.2,1-2.3,2.6-1.8,4.1c0.5,1.2,1.8,1.8,3.1,2.1c1.3,0.1,2.5,0.6,3.6,1.4c0.3,0.4,0.7,0.7,1.1,1.1c0.7,0.4,1.6,0.6,2.4,0.5
	c1.5-0.1,3-0.2,4.6-0.4c0.3,0,0.6-0.1,0.9-0.3c0.4-0.4,0.6-1,0.5-1.5c0.1-1.5,0-3.1-0.2-4.6c-0.1-0.3-0.1-0.6-0.2-0.9
	c0.5-1.3,0.9-2.6,1.1-4c0.3-2,0.4-4.1,0.5-6.1c0.3-5.2,1-10.4,1.8-15.6l1-6.7c0.3-2.2,0.6-4.4,1-6.6c1.9-11.9,4.7-23.5,8.6-34.9
	c0.8-2.4,2.3-5.3,4.9-5.3l1.5,3c2,3.8,3.2,7.9,4.7,11.9c2,5.2,1.3,11.2,4,16.1c0.4,0.8,1,1.6,1.3,2.4c0.5,1.3,0.8,2.7,0.8,4.1
	l1.8,18c0.8,8.1,1.7,16.4,5.3,23.7c0.2,0.5,0.5,0.9,0.8,1.3c-0.1,1.2-0.1,2.4,0,3.6c-0.2,0.8,0.3,1.5,1,1.7c0.1,0,0.3,0,0.4,0
	c1.5,0.2,3,0.3,4.5,0.4c0.8,0.1,1.7,0,2.4-0.5c0.4-0.3,0.8-0.7,1.1-1.1c1.1-0.8,2.3-1.2,3.6-1.4c1.3-0.3,2.7-0.9,3.1-2.1
	c0.6-1.5-0.5-3.1-1.8-4.1c-1-0.9-2.2-1.5-3.6-1.7c-0.5,0-1.1,0-1.6-0.1c0.1-0.7,0.2-1.3,0.1-2c-0.1-0.8-0.2-1.6-0.1-2.4
	c0.2-0.8,0.5-1.6,0.8-2.3c1.2-3.5-1.3-7.1-2.2-10.8c-1.2-4.8,0.6-9.9,0.2-14.8c-0.5-7.8-5.9-15.1-4.5-22.7
	c1.2-6.1,0.2-12.4-0.9-18.5l-4-22.8c-0.3-1.9-0.8-3.7-1.5-5.4c0.7-0.1,1.5-0.3,2.2-0.6c1-2.4,0.8-5.1,0.5-7.8s-1-5.2-1.3-7.8
	c-0.3-2.1-0.5-4.2-0.5-6.3c-0.1-2.1,0-4.2,0.4-6.2c0.5-1.8,1.1-3.5,1.9-5.2c1.9-4.9,4.3-9.5,7-14c4.1-0.3,8.1-0.7,12.2-1
	c1,0,2-0.2,2.9-0.4c1.2-0.4,2.5-0.8,3.7-1.1c0.5,0,0.9-0.1,1.4-0.3c0.9-0.4,1.5-1.6,2.4-1.6c0.4,0,0.7,0,1.1,0c0.4-0.1,0.7-0.6,1-1
	c0.6-0.7,1.6-0.8,2.4-1.3C629.1,452.5,629.6,450.7,629,449.1z"/>
<circle class="st13" cx="576.9" cy="427.2" r="11"/>
<path class="st13" d="M564.2,440.9c-1.1,1.4-2.4,2.7-3.8,3.8c6.5,3.9,14.1,5.1,21.5,3.5c-0.3-0.8-1.2-0.9-1.9-1.2
	c-0.9-0.6-1.5-1.6-1.7-2.7c-0.7-2.6-1-5.4-0.6-8.1c0.1-0.7,0.1-1.3,0-2c-0.4-1-1.1-1.8-2.1-2.3c-1.6-1-3.2-1.7-5-2.2
	c-1.8-0.5-2.9-0.8-2.9,1.3C567.6,434.5,566.4,438,564.2,440.9z"/>
<path class="st13" d="M615.3,447.8l-1.1-7.1c-0.2-1.4-0.5-2.8-0.9-4.2c-0.7-1.8-1.5-3.5-2.6-5.1c-0.4-0.7-0.8-1.3-1.4-1.9
	c-0.6-0.5-1.4-0.9-2.2-1.1c-2-0.7-4.3-0.6-6.3,0.2c-1.6,0.8-3,2.2-4.8,2c0.1-1.1,0.7-2.2,1.6-2.8c0.9-0.6,1.9-1.1,3-1.3
	c0.6-0.2,0.7-1.2,0.6-1.8c-0.1-1.1-1.7-1.4-2.3-2.3s0-2.4,0.8-3.3c1.4-1.6,3.4-2.6,5.5-2.9c2.2-0.2,4.3,0.8,5.4,2.6
	c0.4,0.9,0.8,1.8,1.1,2.7c0.8,1.7,1.9,3.3,3.2,4.6c3,3.5,5.5,7.4,8.2,11.1c0.9,1.2,1.7,2.4,2.5,3.7c1.2,2.2,1.9,4.7,2,7.2
	c0.1,0.8,0,1.6-0.3,2.3c-0.6,1.1-1.8,1.7-3,1.7c-1.2,0-2.4-0.3-3.6-0.7l-4.4-1.5c-0.5-0.1-1-0.4-1.4-0.8
	C614.8,448.8,614.8,448.1,615.3,447.8z"/>
<path class="st13" d="M528.1,449.3l1.1-7.1c0.2-1.4,0.5-2.8,0.9-4.2c0.7-1.8,1.5-3.5,2.6-5.1c0.4-0.7,0.8-1.3,1.4-1.9
	c0.6-0.5,1.4-0.9,2.2-1.1c2-0.7,4.3-0.6,6.3,0.2c1.6,0.8,3,2.2,4.8,2c-0.1-1.1-0.7-2.2-1.6-2.8c-0.9-0.6-1.9-1.1-3-1.3
	c-0.6-0.2-0.7-1.2-0.6-1.8c0.1-1.1,1.7-1.4,2.3-2.3s0-2.4-0.8-3.3c-1.4-1.6-3.4-2.7-5.5-2.9c-2.2-0.2-4.3,0.8-5.4,2.6
	c-0.4,0.9-0.8,1.8-1.1,2.7c-0.8,1.7-1.9,3.3-3.2,4.6c-3,3.5-5.5,7.4-8.2,11.1c-0.9,1.2-1.7,2.4-2.5,3.7c-1.2,2.2-1.9,4.7-2,7.2
	c-0.1,0.8,0,1.6,0.3,2.3c0.6,1.1,1.8,1.7,3,1.7c1.2,0,2.4-0.3,3.6-0.7l4.4-1.4c0.5-0.1,1-0.4,1.4-0.8
	C528.7,450.4,528.6,449.7,528.1,449.3z"/>
<path class="st2" d="M607.3,611.4c1.2,1,2.3,2.6,1.8,4.1c-0.5,1.2-1.8,1.8-3.1,2.1c-1.3,0.1-2.5,0.6-3.6,1.4c-0.3,0.4-0.7,0.7-1.1,1
	c-0.7,0.4-1.6,0.6-2.4,0.5c-1.5-0.1-3-0.2-4.5-0.4c-0.3,0-0.6-0.1-0.9-0.3c-0.4-0.4-0.6-0.9-0.5-1.5c-0.1-1.5-0.1-3,0.2-4.5
	c0.3-1.5,1-2.9,2.2-3.9c1.2-0.9,4.7-3.6,6-1.9c0.3,0.5,0.2,1.1,0.7,1.5s1.3,0.2,1.8,0.2C605.1,609.9,606.3,610.5,607.3,611.4z"/>
<path class="st2" d="M539.8,611.9c-1.2,1-2.3,2.6-1.8,4.1c0.5,1.2,1.8,1.8,3.1,2.1c1.3,0.1,2.5,0.6,3.6,1.4c0.3,0.4,0.7,0.7,1.1,1.1
	c0.7,0.4,1.6,0.6,2.4,0.5c1.5-0.1,3-0.2,4.5-0.4c0.3,0,0.6-0.1,0.9-0.3c0.4-0.4,0.6-0.9,0.5-1.5c0.1-1.5,0-3-0.2-4.5
	c-0.2-1.5-1-2.9-2.2-3.9c-1.2-0.9-4.7-3.6-6-1.9c-0.3,0.5-0.2,1.1-0.7,1.5s-1.2,0.2-1.8,0.2C542,610.5,540.8,611.1,539.8,611.9z"/>
<path class="st2" d="M556.8,505.2c-4.5,13-8.9,26.5-8.5,40.2c0.2,8.3,2,17.5-2.8,24.4c-0.7,0.8-1.2,1.7-1.6,2.7
	c-0.4,1.3,0,2.8,0.2,4.1c0.9,6-2.3,11.9-2.6,17.9c0,1.9,0.1,3.7,0.4,5.6l1.2,10.7c0.4,3.7,5.1,5.2,8.8,5.7c1.7-2,2.8-4.5,3.1-7.2
	c0.3-2,0.4-4.1,0.5-6.1c0.3-5.2,1.1-10.4,1.8-15.5l1-6.6c0.3-2.2,0.6-4.4,1-6.5c1.9-11.8,4.8-23.4,8.6-34.6c0.8-2.4,2.3-5.3,4.9-5.3
	l1.5,2.9c2,3.7,3.2,7.9,4.7,11.8c2,5.2,1.3,11.2,4,16.1c0.4,0.8,1,1.6,1.3,2.4c0.5,1.3,0.7,2.6,0.8,4l1.8,17.9
	c0.8,8,1.7,16.3,5.3,23.5c0.4,0.9,0.9,1.6,1.7,2.2c1.5,1,3.5,0.5,5-0.5c2.3-1.7,3.6-4.5,3.5-7.4c-0.1-0.8-0.2-1.6-0.1-2.4
	c0.2-0.8,0.5-1.6,0.8-2.3c1.2-3.5-1.3-7.1-2.2-10.7c-1.2-4.8,0.6-9.8,0.3-14.8c-0.5-7.7-5.9-15-4.5-22.6c1.2-6.1,0.2-12.3-0.9-18.5
	l-4-22.7c-0.6-3.6-1.6-7.6-4.8-9.4c-1.8-0.8-3.8-1.2-5.8-1C572.8,503.3,564.9,504.5,556.8,505.2z"/>
<path class="st3" d="M629,449.9c-2.9,0.3-5.8-0.3-8.4-1.7c-1-0.6-2-1.2-3.1-1.6c-2-0.7-4.2-0.1-6.3,0.2c-3.4,0.5-7,0.3-10.3-0.7
	c-3.5-1-7-2.8-10.6-2c-1.7,0.4-3.2,1.3-4.9,1.6c-1.3,0.1-2.7,0.1-4-0.2l-11.4-1.8c-2.6-0.5-5.2-0.7-7.8-0.6c-2,0.4-4,0.6-6,0.8
	c-2.1,0-4.2-0.8-6.3-0.7c-1.2,0.1-2.5,0.4-3.7,0.8c-5.5,1.6-11.2,2.4-16.9,2.2c-4.5,0.3-8.9,1.8-12.7,4.4c-0.5,0.3-0.9,0.8-1,1.4
	c0.1,0.5,0.4,1,0.8,1.4c1.5,1.5,3.1,3.1,5.2,3.8c1.3,0.3,2.6,0.5,3.9,0.7c3.2,0.6,6.1,2.4,9.3,2.4c2.2,0,4.4-0.9,6.6-0.6
	c3,0.4,5.2,2.8,7,5.2c1.6,1.8,2.7,4,3.5,6.3c0.7,2.8,0.3,5.9,1.8,8.3c0.4,0.5,0.7,1.1,0.9,1.7c0,0.9-0.2,1.9-0.6,2.7
	c-1.3,3.8,1.5,7.9,1.2,12c-0.1,1.9-1,3.8-1.1,5.7c-0.1,2.5,0.9,5.3-0.5,7.4c5.4-2.7,11.4-4,17.5-3.8c1,0,2,0.1,3,0.3
	c1.9,0.4,3.8,0.9,5.7,1.6c4.2,1.3,8.8,2.3,12.9,0.8c1-2.4,0.8-5.1,0.5-7.7s-1-5.2-1.3-7.8c-0.3-2.1-0.5-4.2-0.5-6.3
	c-0.1-2.1,0-4.2,0.4-6.2c0.5-1.8,1.1-3.5,1.9-5.2c1.9-4.9,4.3-9.5,7-14c4.1-0.3,8.1-0.7,12.2-1c1-0.1,2-0.2,2.9-0.4
	c1.2-0.4,2.5-0.8,3.7-1.1c0.5,0,0.9-0.1,1.4-0.3c0.9-0.4,1.5-1.5,2.4-1.6c0.4,0,0.7,0,1.1,0c0.4-0.1,0.7-0.6,1-1
	c0.6-0.7,1.6-0.8,2.4-1.3C628.9,453.2,629.5,451.5,629,449.9z"/>
<path class="st14" d="M578.9,431.1c0.7,0.5,1.6,0.6,2.3,0.1c0.4-0.4,0.7-1,0.8-1.5c0.4-1.2,0.7-2.5,0.9-3.8c0.1-0.6,0.2-1.1,0.5-1.6
	c0.7-1.1,2.3-1.2,3.5-1.7c1.5-0.8,2.8-2.1,3.6-3.6l-0.7-0.1l0.7-1c-0.5-0.3-0.7-1-0.4-1.6c0.1-0.1,0.1-0.2,0.2-0.3
	c-0.6-0.3-1.2-0.5-1.9-0.4c0.2-0.4-0.1-0.9-0.5-1c-0.4-0.1-0.9-0.1-1.3-0.1c-0.6-0.1-1.3-0.2-1.9-0.4c-4.3-1.5-8.9-2.8-13.2-1.5
	c-1.9,0.6-3.7,1.5-5.3,2.8c-3.2,1.8-4.4,5.7-2.8,9c0.7,1.6,1.1,3.3,1.4,5c0.1,1.6-0.1,3.2-0.5,4.8c1.2,0.4,2.4,0.6,3.7,0.7
	c1.2,0.1,2.5-0.3,3.5-1c1-0.9,1.6-2.2,2.4-3.3c0.6-1,1.7-1.5,2.9-1.5C577.8,429.4,578,430.5,578.9,431.1z"/>
<path class="st2" d="M549.9,620h-11.7c-0.8,0.2-1.4,1-1.2,1.8c0.1,0.6,0.6,1.1,1.2,1.2h2.3v19.9h-40.1c-0.2-0.3-0.5-0.5-0.9-0.5
	h-11.7c-0.8,0.2-1.4,1-1.2,1.8c0.1,0.6,0.6,1.1,1.2,1.2h2.3v20.4h-38.7c-0.1-0.6-0.5-1-1.1-1.1h-11.7c-0.8,0.1-1.4,0.9-1.3,1.7
	c0.1,0.6,0.6,1.1,1.3,1.3h1.2v21h-39.3c-0.1-0.1-0.3-0.1-0.5-0.1h-11.7c-0.8,0.2-1.4,1-1.2,1.8c0.1,0.6,0.6,1.1,1.2,1.2h1.2v20
	h-38.8c-0.2-0.4-0.6-0.7-1-0.7h-11.7c-0.8,0.2-1.4,1-1.2,1.8c0.1,0.6,0.6,1.1,1.2,1.2h1.2V736h264.5V620H549.9z"/>
<path class="st0" d="M173,236.3c-1.2-1.5-2.5-2.9-3.9-4.2c-1.4-1.2-1.5-3.3-0.3-4.7c0.2-0.2,0.4-0.4,0.7-0.6c0.5-0.3,0.9-0.6,1.4-1
	c5.5-4.1,8.2-9.7,6.1-12.5s-8.2-1.6-13.6,2.6c-0.6,0.5-1.2,1-1.8,1.5c-1.4,1.2-3.5,1.1-4.7-0.3c-0.2-0.2-0.4-0.5-0.5-0.7
	c-0.8-1.5-1.7-2.9-2.7-4.3c-4.9-6.4-11.4-9.6-14.6-7.2s-1.9,9.6,3,16c0.9,1.3,2,2.4,3.1,3.5c1.3,1.3,1.4,3.4,0.1,4.8
	c-0.2,0.2-0.5,0.4-0.8,0.6l0,0c-6,3.4-9.4,8.6-7.7,11.6s7.9,2.6,13.9-0.8c0.9-0.5,1.8-1.1,2.7-1.8c1.5-1.1,3.6-0.8,4.7,0.6
	c0.1,0.2,0.3,0.4,0.4,0.6c0.8,1.8,1.8,3.4,3,5c4.9,6.4,11.4,9.6,14.6,7.2S177.9,242.7,173,236.3z"/>
<path class="st0" d="M881.3,409.1c1.1-1.5,2.1-3.2,2.9-5c0.7-1.7,2.7-2.4,4.4-1.7c0.3,0.1,0.6,0.3,0.8,0.5c0.4,0.4,0.9,0.7,1.4,1.1
	c5.6,4,11.7,5,13.7,2.2s-0.9-8.3-6.4-12.3c-0.7-0.5-1.3-0.9-2-1.3c-1.6-1-2.1-3-1.1-4.6c0.2-0.3,0.4-0.5,0.6-0.7
	c1.2-1.2,2.3-2.4,3.3-3.8c4.7-6.5,5.9-13.7,2.7-16s-9.7,1-14.4,7.5c-0.9,1.3-1.7,2.6-2.4,4c-0.9,1.7-2.9,2.3-4.6,1.5
	c-0.3-0.2-0.6-0.4-0.8-0.6l0,0c-5-4.7-11-6.5-13.3-4s-0.2,8.3,4.8,13c0.8,0.7,1.6,1.4,2.5,2c1.5,1.1,1.9,3.2,0.8,4.7
	c-0.1,0.2-0.3,0.4-0.5,0.5c-1.5,1.3-2.8,2.8-3.9,4.4c-4.7,6.5-5.9,13.7-2.6,16S876.6,415.6,881.3,409.1z"/>
<ellipse class="st3" cx="886.5" cy="740.2" rx="33.8" ry="6.5"/>
<ellipse class="st2" cx="885.9" cy="737.4" rx="3.9" ry="5.2"/>
<ellipse class="st2" cx="885.9" cy="731.1" rx="3.9" ry="5.2"/>
<ellipse class="st2" cx="885.9" cy="724.8" rx="3.9" ry="5.2"/>
<ellipse class="st2" cx="885.9" cy="718.5" rx="3.9" ry="5.2"/>
<ellipse class="st2" cx="885.9" cy="712.2" rx="3.9" ry="5.2"/>
<ellipse class="st2" cx="885.9" cy="706" rx="3.9" ry="5.2"/>
<ellipse class="st2" cx="885.9" cy="699.7" rx="3.9" ry="5.2"/>
<path class="st3" d="M900.6,656.6c0.5-0.7,1-1.4,1.5-2.2l-10.3-1.7l11.2,0.1c2.2-4.7,2.3-10.1,0.4-14.9l-15,7.8l13.8-10.2
	c-5.2-9-16.8-12-25.8-6.8s-12,16.8-6.8,25.8c0.4,0.7,0.9,1.4,1.4,2.1c-0.8,1.1-1.6,2.2-2.2,3.4l13.4,7l-14.3-4.8
	c-2,6-0.9,12.7,3,17.7c-6.4,8.2-5,20,3.2,26.5c8.2,6.4,20,5,26.5-3.2c5.4-6.8,5.4-16.5,0-23.3C906,673.1,906,663.4,900.6,656.6
	L900.6,656.6z"/>
<path class="st4" d="M867,668.2c0,4.2,1.4,8.3,4,11.7c-6.4,8.2-5,20,3.2,26.5c8.2,6.4,20,5,26.5-3.2c5.4-6.8,5.4-16.5,0-23.3
	C903.2,676.7,867,666.1,867,668.2z"/>
<ellipse class="st3" cx="270.5" cy="741.7" rx="15.3" ry="2.9"/>
<ellipse class="st2" cx="270.2" cy="740.5" rx="1.8" ry="2.3"/>
<ellipse class="st2" cx="270.2" cy="737.6" rx="1.8" ry="2.3"/>
<ellipse class="st2" cx="270.2" cy="734.8" rx="1.8" ry="2.3"/>
<ellipse class="st2" cx="270.2" cy="731.9" rx="1.8" ry="2.3"/>
<ellipse class="st2" cx="270.2" cy="729.1" rx="1.8" ry="2.3"/>
<ellipse class="st2" cx="270.2" cy="726.2" rx="1.8" ry="2.3"/>
<ellipse class="st2" cx="270.2" cy="723.4" rx="1.8" ry="2.3"/>
<path class="st3" d="M276.9,703.9c0.2-0.3,0.5-0.7,0.7-1l-4.7-0.8h5.1c0.5-1.1,0.8-2.3,0.8-3.6c0-1.1-0.2-2.2-0.6-3.2l-6.8,3.5
	l6.3-4.6c-2.4-4.1-7.6-5.4-11.7-3.1c-4.1,2.4-5.4,7.6-3.1,11.7c0.2,0.3,0.4,0.6,0.6,0.9c-0.4,0.5-0.7,1-1,1.5l6.1,3.2l-6.5-2.2
	c-0.9,2.7-0.4,5.7,1.4,8c-2.9,3.7-2.3,9.1,1.4,12c3.7,2.9,9.1,2.3,12-1.4c2.4-3.1,2.4-7.5,0-10.6
	C279.3,711.3,279.3,706.9,276.9,703.9L276.9,703.9z"/>
<path class="st4" d="M261.6,709.2c0,1.9,0.6,3.8,1.8,5.3c-2.9,3.7-2.3,9.1,1.4,12c3.7,2.9,9.1,2.3,12-1.4c2.4-3.1,2.4-7.5,0-10.6
	C278,713,261.6,708.2,261.6,709.2z"/>
</svg>
